<?xml version="1.0" encoding="UTF-8"?>
<!DOCTYPE svg PUBLIC "-//W3C//DTD SVG 1.1//EN" "http://www.w3.org/Graphics/SVG/1.1/DTD/svg11.dtd">
<!-- Creator: CorelDRAW -->
<svg xmlns="http://www.w3.org/2000/svg" xml:space="preserve" width="0.791661in" height="0.791661in" version="1.1" style="shape-rendering:geometricPrecision; text-rendering:geometricPrecision; image-rendering:optimizeQuality; fill-rule:evenodd; clip-rule:evenodd"
viewBox="0 0 791.24 791.24"
 xmlns:xlink="http://www.w3.org/1999/xlink"
 xmlns:xodm="http://www.corel.com/coreldraw/odm/2003">
 <defs>
  <style type="text/css">
   <![CDATA[
    .fil0 {fill:#F4B609;fill-rule:nonzero}
    .fil1 {fill:white;fill-rule:nonzero}
   ]]>
  </style>
 </defs>
 <g id="Layer_x0020_1">
  <metadata id="CorelCorpID_0Corel-Layer"/>
  <g id="_2560820113712">
   <circle class="fil0" cx="395.62" cy="395.62" r="395.62"/>
   <path class="fil1" d="M273.43 409.21l35.11 35.11 27.15 -27.15 -35.11 -35.11 27.15 -27.15 35.11 35.11 27.15 -27.16 -35.1 -35.1 27.15 -27.15 35.11 35.11 27.15 -27.15 -35.11 -35.11 54.31 -54.31c7.5,-7.5 19.65,-7.5 27.15,0l81.47 81.47c7.5,7.5 7.5,19.65 0,27.15l-244.39 244.39c-7.5,7.5 -19.66,7.5 -27.15,0l-81.46 -81.47c-7.5,-7.5 -7.5,-19.65 0,-27.15l54.31 -54.3zm162.93 108.61l81.46 -81.47 50.61 50.61 0 81.47 -81.45 0 -50.62 -50.62zm-162.93 -162.93l-54.31 -54.31c-7.5,-7.5 -7.5,-19.65 0,-27.15l54.31 -54.31c7.5,-7.5 19.65,-7.5 27.15,0l54.3 54.31 -81.46 81.46z"/>
  </g>
 </g>
</svg>
